<svg width="1200" height="800" viewBox="0 0 1200 800" fill="none" xmlns="http://www.w3.org/2000/svg">
  <rect width="1200" height="800" rx="48" fill="url(#bg)"/>
  <circle cx="934" cy="176" r="120" fill="#F3D8BE" fill-opacity="0.22"/>
  <circle cx="232" cy="660" r="180" fill="#F6E4D2" fill-opacity="0.18"/>
  <rect x="222" y="244" width="342" height="250" rx="42" fill="#FFF7EF"/>
  <path d="M564 302H618C669.915 302 712 344.085 712 396C712 447.915 669.915 490 618 490H564" stroke="#FFF7EF" stroke-width="30" stroke-linecap="round"/>
  <path d="M306 226C306 180.294 343.294 143 389 143C434.706 143 472 180.294 472 226V244H306V226Z" fill="#D8B18B"/>
  <path d="M380 143C380 113 400 94 424 79" stroke="#F7E7D8" stroke-width="18" stroke-linecap="round"/>
  <path d="M433 152C433 122 453 103 477 88" stroke="#F7E7D8" stroke-width="18" stroke-linecap="round"/>
  <rect x="676" y="314" width="250" height="172" rx="26" fill="#3F2F25"/>
  <rect x="698" y="336" width="206" height="128" rx="18" fill="#F4E2D1"/>
  <circle cx="766" cy="400" r="24" fill="#B98158"/>
  <circle cx="834" cy="400" r="24" fill="#5D4633"/>
  <rect x="262" y="560" width="676" height="26" rx="13" fill="#E5C6A7" fill-opacity="0.6"/>
  <text x="96" y="108" fill="#FFF8F1" font-family="Arial, sans-serif" font-size="54" font-weight="700">Кофе и уютный вечер</text>
  <defs>
    <linearGradient id="bg" x1="90" y1="72" x2="1100" y2="736" gradientUnits="userSpaceOnUse">
      <stop stop-color="#7E5942"/>
      <stop offset="1" stop-color="#B68760"/>
    </linearGradient>
  </defs>
</svg>