<svg width="1200" height="800" viewBox="0 0 1200 800" fill="none" xmlns="http://www.w3.org/2000/svg">
  <rect width="1200" height="800" rx="48" fill="url(#bg)"/>
  <circle cx="928" cy="172" r="126" fill="#FFE8F0" fill-opacity="0.18"/>
  <ellipse cx="600" cy="620" rx="286" ry="46" fill="#612F47" fill-opacity="0.22"/>
  <rect x="396" y="286" width="128" height="256" rx="28" fill="#FFF6F9"/>
  <rect x="536" y="244" width="128" height="298" rx="28" fill="#FFF6F9"/>
  <rect x="676" y="312" width="128" height="230" rx="28" fill="#FFF6F9"/>
  <path d="M460 254C492 214 470 176 460 162C450 176 428 214 460 254Z" fill="#FFC48B"/>
  <path d="M600 212C632 172 610 134 600 120C590 134 568 172 600 212Z" fill="#FFC48B"/>
  <path d="M740 280C772 240 750 202 740 188C730 202 708 240 740 280Z" fill="#FFC48B"/>
  <rect x="428" y="438" width="64" height="16" rx="8" fill="#E4B1C4"/>
  <rect x="568" y="396" width="64" height="16" rx="8" fill="#E4B1C4"/>
  <rect x="708" y="464" width="64" height="16" rx="8" fill="#E4B1C4"/>
  <text x="96" y="108" fill="#FFF8FB" font-family="Arial, sans-serif" font-size="54" font-weight="700">Ручная работа и теплый свет</text>
  <defs>
    <linearGradient id="bg" x1="96" y1="60" x2="1090" y2="740" gradientUnits="userSpaceOnUse">
      <stop stop-color="#7A4458"/>
      <stop offset="1" stop-color="#C4899D"/>
    </linearGradient>
  </defs>
</svg>